<svg xmlns="http://www.w3.org/2000/svg" viewBox="0 0 40 40"><rect width="40" height="40" rx="9" fill="#3B99FC"/><path fill="#fff" d="M12.1918 15.4342c4.349-4.2567 11.4003-4.2567 15.7493 0l.5233.5124a.537.537 0 0 1 0 .7714l-1.7899 1.7525a.2823.2823 0 0 1-.3936 0l-.7201-.7053c-3.033-2.9696-7.9506-2.9696-10.9836 0l-.7711.7548a.2823.2823 0 0 1-.3936 0l-1.7899-1.7525a.537.537 0 0 1 0-.7714zm19.4464 3.6244 1.5931 1.5597a.537.537 0 0 1 0 .7714L25.8261 28.4232a.5647.5647 0 0 1-.7872 0l-5.0981-4.9915a.1412.1412 0 0 0-.1968 0l-5.0982 4.9915a.5647.5647 0 0 1-.7871 0L6.6593 21.3897a.537.537 0 0 1 0-.7714l1.593-1.5597a.5647.5647 0 0 1 .7872 0l5.0982 4.9915a.1412.1412 0 0 0 .1968 0l5.0981-4.9915a.5647.5647 0 0 1 .7872 0l5.0981 4.9915a.1412.1412 0 0 0 .1968 0l5.0982-4.9915a.5647.5647 0 0 1 .7872 0z"/></svg>
