<svg xmlns="http://www.w3.org/2000/svg" viewBox="0 0 1024 1024" shape-rendering="geometricPrecision">
  <defs>
    <filter id="cellShadow" x="-10%" y="-10%" width="120%" height="120%">
      <feDropShadow dx="0" dy="4" stdDeviation="6" flood-color="#0F172A" flood-opacity="0.10"/>
    </filter>
  </defs>
  <rect width="1024" height="1024" rx="229.38" ry="229.38" fill="#FFFFFF"/>
  <g filter="url(#cellShadow)">
    <rect x="411.31" y="163.84" width="201.39" height="201.39" rx="40.28" ry="40.28" fill="#F1F3F5" stroke="#D9D9D9" stroke-width="6"/>
    <rect x="163.84" y="411.31" width="201.39" height="201.39" rx="40.28" ry="40.28" fill="#F1F3F5" stroke="#D9D9D9" stroke-width="6"/>
    <rect x="658.78" y="411.31" width="201.39" height="201.39" rx="40.28" ry="40.28" fill="#F1F3F5" stroke="#D9D9D9" stroke-width="6"/>
    <rect x="411.31" y="658.78" width="201.39" height="201.39" rx="40.28" ry="40.28" fill="#F1F3F5" stroke="#D9D9D9" stroke-width="6"/>
    <rect x="163.84" y="163.84" width="201.39" height="201.39" rx="40.28" ry="40.28" fill="#D1FAE5" stroke="#86EFAC" stroke-width="14"/>
    <rect x="658.78" y="163.84" width="201.39" height="201.39" rx="40.28" ry="40.28" fill="#D1FAE5" stroke="#86EFAC" stroke-width="14"/>
    <rect x="163.84" y="658.78" width="201.39" height="201.39" rx="40.28" ry="40.28" fill="#D1FAE5" stroke="#86EFAC" stroke-width="14"/>
    <rect x="658.78" y="658.78" width="201.39" height="201.39" rx="40.28" ry="40.28" fill="#D1FAE5" stroke="#86EFAC" stroke-width="14"/>
    <rect x="411.31" y="411.31" width="201.39" height="201.39" rx="40.28" ry="40.28" fill="#2D68C7"/>
  </g>
</svg>
